<svg width="80" height="80" viewBox="0 0 196 30" fill="none" xmlns="http://www.w3.org/2000/svg">
<g clip-path="url(#clip0_1499_15184)">
<path d="M25.5026 9.38887H19.574V2.69858C19.574 1.62769 18.6963 0.75 17.6255 0.75C16.5546 0.75 15.6769 1.62769 15.6769 2.69858V11.3374C15.6769 12.4083 16.5546 13.286 17.6255 13.286H25.5026C26.5735 13.286 27.4511 12.4083 27.4511 11.3374C27.4511 10.2666 26.5735 9.38887 25.5026 9.38887Z" fill="#1A1449"/>
<path d="M25.5026 20.6111H19.574V27.3014C19.574 28.3723 18.6963 29.25 17.6255 29.25C16.5546 29.25 15.6769 28.3723 15.6769 27.3014V18.6626C15.6769 17.5917 16.5546 16.714 17.6255 16.714H25.5026C26.5735 16.714 27.4511 17.5917 27.4511 18.6626C27.4511 19.7334 26.5735 20.6111 25.5026 20.6111Z" fill="#7DC4A5"/>
<path d="M1.94858 20.6111H7.87711V27.3014C7.87711 28.3723 8.75479 29.25 9.82568 29.25C10.8966 29.25 11.7743 28.3723 11.7743 27.3014V18.6626C11.7743 17.5917 10.8966 16.714 9.82568 16.714H1.94858C0.877687 16.714 0 17.5917 0 18.6626C0 19.7334 0.877687 20.6111 1.94858 20.6111Z" fill="#1A1449"/>
<path d="M1.94858 9.38887H7.87711V2.69858C7.87711 1.62769 8.75479 0.75 9.82568 0.75C10.8966 0.75 11.7743 1.62769 11.7743 2.69858V11.3374C11.7743 12.4083 10.8966 13.286 9.82568 13.286H1.94858C0.877687 13.286 0 12.4083 0 11.3374C0 10.2666 0.877687 9.38887 1.94858 9.38887Z" fill="#7DC4A5"/>
<path d="M35.1847 9.38335H43.7353V11.63H37.6522V14.0202H43.0121V16.2669H37.6522V20.6166H35.1792V9.38335H35.1847Z" fill="#1A1449"/>
<path d="M48.2728 9.30055H50.5526L55.3661 20.6111H52.7827L51.756 18.094H47.0087L45.982 20.6111H43.4648L48.2783 9.30055H48.2728ZM50.8727 15.9136L49.3823 12.2703L47.8919 15.9136H50.8783H50.8727Z" fill="#1A1449"/>
<path d="M57.0993 9.38335H62.2329C63.6626 9.38335 64.7666 9.78632 65.5063 10.5205C66.1301 11.1442 66.4668 12.0275 66.4668 13.0873V13.1204C66.4668 14.9365 65.4897 16.0737 64.0601 16.6036L66.8035 20.6166H63.9165L61.5098 17.0231H59.5667V20.6166H57.0938V9.38335H57.0993ZM62.0728 14.8372C63.2762 14.8372 63.9662 14.1968 63.9662 13.2474V13.2143C63.9662 12.1544 63.2265 11.6079 62.0232 11.6079H59.5667V14.8316H62.0728V14.8372Z" fill="#1A1449"/>
<path d="M68.7026 9.38335H71.3632L74.3164 14.1306L77.2697 9.38335H79.9303V20.6166H77.4739V13.286L74.3109 18.0829H74.2447L71.1148 13.3357V20.6222H68.6915V9.38335H68.7026Z" fill="#1A1449"/>
<path d="M86.4769 9.30055H88.7567L93.5702 20.6111H90.9868L89.9601 18.094H85.2128L84.1861 20.6111H81.6689L86.4824 9.30055H86.4769ZM89.0768 15.9136L87.5864 12.2703L86.096 15.9136H89.0824H89.0768Z" fill="#1A1449"/>
<path d="M94.0836 15.0304V14.9972C94.0836 11.8067 96.4904 9.19016 99.9404 9.19016C102.06 9.19016 103.324 9.89672 104.367 10.9234L102.794 12.734C101.928 11.9502 101.044 11.4644 99.9238 11.4644C98.0304 11.4644 96.667 13.0376 96.667 14.9641V14.9972C96.667 16.9237 97.9973 18.5301 99.9238 18.5301C101.21 18.5301 101.994 18.0167 102.877 17.2163L104.45 18.8061C103.297 20.0426 102.01 20.8099 99.8465 20.8099C96.54 20.8099 94.0836 18.2596 94.0836 15.0359V15.0304Z" fill="#1A1449"/>
<path d="M106.537 9.38335H109.01V20.6166H106.537V9.38335Z" fill="#1A1449"/>
<path d="M115.661 9.30055H117.941L122.755 20.6111H120.171L119.145 18.094H114.397L113.371 20.6111H110.854L115.667 9.30055H115.661ZM118.261 15.9136L116.771 12.2703L115.281 15.9136H118.267H118.261Z" fill="#1A1449"/>
<path d="M123.555 18.9772L125.018 17.2273C126.028 18.0609 127.088 18.5908 128.369 18.5908C129.379 18.5908 129.992 18.1878 129.992 17.5309V17.4978C129.992 16.8741 129.605 16.5484 127.728 16.0681C125.465 15.4885 124.008 14.8648 124.008 12.6347V12.6015C124.008 10.5646 125.647 9.21775 127.938 9.21775C129.578 9.21775 130.969 9.73112 132.111 10.6474L130.825 12.5077C129.831 11.8177 128.849 11.3982 127.905 11.3982C126.961 11.3982 126.459 11.8287 126.459 12.3752V12.4083C126.459 13.148 126.939 13.3854 128.882 13.8822C131.162 14.4784 132.442 15.2953 132.442 17.2494V17.2825C132.442 19.5126 130.742 20.7657 128.319 20.7657C126.619 20.7657 124.902 20.1695 123.555 18.9662V18.9772Z" fill="#1A1449"/>
<path d="M134.595 9.38335H138.978C142.511 9.38335 144.945 11.8067 144.945 14.9696V15.0028C144.945 18.1657 142.505 20.6166 138.978 20.6166H134.595V9.38335ZM137.068 11.6135V18.3865H138.978C140.998 18.3865 142.362 17.0231 142.362 15.0304V14.9972C142.362 13.01 140.998 11.6135 138.978 11.6135H137.068Z" fill="#1A1449"/>
<path d="M147.258 9.38335H149.731V20.6166H147.258V9.38335Z" fill="#1A1449"/>
<path d="M152.535 9.38335H157.669C159.099 9.38335 160.203 9.78632 160.942 10.5205C161.566 11.1442 161.903 12.0275 161.903 13.0873V13.1204C161.903 14.9365 160.926 16.0737 159.496 16.6036L162.24 20.6166H159.353L156.946 17.0231H155.003V20.6166H152.53V9.38335H152.535ZM157.509 14.8372C158.712 14.8372 159.402 14.1968 159.402 13.2474V13.2143C159.402 12.1544 158.663 11.6079 157.459 11.6079H155.003V14.8316H157.509V14.8372Z" fill="#1A1449"/>
<path d="M164.133 9.38335H172.606V11.5803H166.589V13.8601H171.883V16.0571H166.589V18.4142H172.689V20.6111H164.138V9.38335H164.133Z" fill="#1A1449"/>
<path d="M174.389 15.0304V14.9972C174.389 11.8067 176.796 9.19016 180.246 9.19016C182.366 9.19016 183.63 9.89672 184.673 10.9234L183.1 12.734C182.233 11.9502 181.35 11.4644 180.229 11.4644C178.336 11.4644 176.973 13.0376 176.973 14.9641V14.9972C176.973 16.9237 178.303 18.5301 180.229 18.5301C181.516 18.5301 182.3 18.0167 183.183 17.2163L184.756 18.8061C183.602 20.0426 182.316 20.8099 180.152 20.8099C176.846 20.8099 174.389 18.2596 174.389 15.0359V15.0304Z" fill="#1A1449"/>
<path d="M189.343 11.6631H185.926V9.38335H195.233V11.6631H191.816V20.6166H189.343V11.6631Z" fill="#1A1449"/>
</g>
<defs>
<clipPath id="clip0_1499_15184">
<rect width="195.233" height="28.5" fill="white" transform="translate(0 0.75)"/>
</clipPath>
</defs>
</svg>
